<svg width="20" height="20" viewBox="0 0 20 20" fill="none" xmlns="http://www.w3.org/2000/svg">
<path d="M5.00033 9.16927V12.5026M15.0003 7.5026V10.8359M14.167 3.33594C16.2076 3.33594 17.3113 3.64824 17.8604 3.89047C17.9336 3.92273 17.9701 3.93886 18.0757 4.03958C18.1389 4.09995 18.2544 4.2771 18.2841 4.35934C18.3337 4.49655 18.3337 4.57155 18.3337 4.72156V13.6786C18.3337 14.4359 18.3337 14.8145 18.2201 15.0091C18.1046 15.2071 17.9932 15.2992 17.7769 15.3753C17.5644 15.4501 17.1353 15.3676 16.2771 15.2027C15.6765 15.0873 14.9641 15.0026 14.167 15.0026C11.667 15.0026 9.16699 16.6693 5.83366 16.6693C3.79307 16.6693 2.68938 16.357 2.14023 16.1147C2.06709 16.0825 2.03053 16.0663 1.92499 15.9656C1.86173 15.9053 1.74626 15.7281 1.71655 15.6459C1.66699 15.5087 1.66699 15.4337 1.66699 15.2837L1.66699 6.32665C1.66699 5.56934 1.66699 5.19069 1.78056 4.99606C1.89608 4.79807 2.00748 4.70603 2.22371 4.62995C2.43627 4.55515 2.86535 4.63759 3.72352 4.80248C4.32417 4.91789 5.03656 5.0026 5.83366 5.0026C8.33366 5.0026 10.8337 3.33594 14.167 3.33594ZM12.0837 10.0026C12.0837 11.1532 11.1509 12.0859 10.0003 12.0859C8.84973 12.0859 7.91699 11.1532 7.91699 10.0026C7.91699 8.85201 8.84973 7.91927 10.0003 7.91927C11.1509 7.91927 12.0837 8.85201 12.0837 10.0026Z" stroke="white" stroke-width="1.5" stroke-linecap="round" stroke-linejoin="round"/>
</svg>
