<svg width="20" height="20" viewBox="0 0 20 20" fill="none" xmlns="http://www.w3.org/2000/svg">
<path fill-rule="evenodd" clip-rule="evenodd" d="M5.93441 2.6021C7.01274 1.52377 8.47528 0.917969 10.0003 0.917969C11.5253 0.917969 12.9878 1.52377 14.0661 2.6021C15.1445 3.68044 15.7503 5.14297 15.7503 6.66797C15.7503 9.10999 16.3642 10.7347 17.0123 11.7762L17.0214 11.7907C17.3198 12.2704 17.5546 12.6477 17.7126 12.9218C17.7917 13.0591 17.8626 13.1892 17.9145 13.3036C17.9404 13.3607 17.9687 13.4292 17.9906 13.5028C18.009 13.5643 18.0426 13.692 18.03 13.8464C18.021 13.9566 17.999 14.1372 17.8959 14.3228C17.7928 14.5083 17.6511 14.6224 17.5623 14.6883C17.3706 14.8305 17.1484 14.8634 17.0702 14.8749L17.068 14.8753C16.9496 14.8928 16.8138 14.9017 16.6741 14.9071C16.3964 14.918 16.0109 14.918 15.5283 14.918H4.47224C3.98965 14.918 3.60419 14.918 3.32646 14.9071C3.18674 14.9017 3.0509 14.8928 2.93256 14.8753L2.93036 14.8749C2.85213 14.8634 2.6299 14.8305 2.43826 14.6883C2.34946 14.6224 2.2078 14.5083 2.10469 14.3228C2.00159 14.1372 1.97955 13.9566 1.97054 13.8464C1.95791 13.692 1.99157 13.5643 2.0099 13.5028C2.03182 13.4292 2.06011 13.3607 2.08605 13.3036C2.13799 13.1892 2.20882 13.0591 2.28797 12.9218C2.44595 12.6477 2.68075 12.2704 2.97928 11.7906L2.98821 11.7762C3.63631 10.7347 4.25027 9.10999 4.25027 6.66797C4.25027 5.14297 4.85607 3.68044 5.93441 2.6021ZM7.23311 17.005C7.50721 16.6944 7.98117 16.6649 8.29172 16.939C8.74757 17.3413 9.3446 17.5846 10.0003 17.5846C10.6559 17.5846 11.253 17.3413 11.7088 16.939C12.0194 16.6649 12.4933 16.6944 12.7674 17.005C13.0415 17.3156 13.012 17.7895 12.7014 18.0636C11.9821 18.6985 11.0353 19.0846 10.0003 19.0846C8.96521 19.0846 8.01849 18.6985 7.29912 18.0636C6.98857 17.7895 6.95902 17.3156 7.23311 17.005Z" fill="#CCCFDA"/>
</svg>
