<svg width="20" height="20" viewBox="0 0 20 20" fill="none" xmlns="http://www.w3.org/2000/svg">
<path d="M1.66699 1.66797H2.75546C2.96048 1.66797 3.06299 1.66797 3.14548 1.70567C3.21817 1.73889 3.27978 1.79232 3.32295 1.85959C3.37194 1.93592 3.38644 2.0374 3.41543 2.24035L3.80985 5.0013M3.80985 5.0013L4.68643 11.4441C4.79766 12.2617 4.85328 12.6705 5.04874 12.9783C5.22097 13.2494 5.46789 13.465 5.75979 13.5991C6.09104 13.7513 6.50361 13.7513 7.32875 13.7513H14.4603C15.2458 13.7513 15.6385 13.7513 15.9595 13.61C16.2424 13.4854 16.4852 13.2845 16.6606 13.0298C16.8594 12.741 16.9329 12.3552 17.0799 11.5836L18.1829 5.79271C18.2346 5.52114 18.2605 5.38536 18.223 5.27922C18.1901 5.18611 18.1253 5.10771 18.0399 5.05798C17.9427 5.0013 17.8045 5.0013 17.528 5.0013H3.80985ZM8.33366 17.5013C8.33366 17.9615 7.96056 18.3346 7.50033 18.3346C7.04009 18.3346 6.66699 17.9615 6.66699 17.5013C6.66699 17.0411 7.04009 16.668 7.50033 16.668C7.96056 16.668 8.33366 17.0411 8.33366 17.5013ZM15.0003 17.5013C15.0003 17.9615 14.6272 18.3346 14.167 18.3346C13.7068 18.3346 13.3337 17.9615 13.3337 17.5013C13.3337 17.0411 13.7068 16.668 14.167 16.668C14.6272 16.668 15.0003 17.0411 15.0003 17.5013Z" stroke="#9395B8" stroke-width="1.5" stroke-linecap="round" stroke-linejoin="round"/>
</svg>
