<svg width="323" height="186" viewBox="0 0 323 186" fill="none" xmlns="http://www.w3.org/2000/svg">
<path opacity="0.6" d="M1.24489 3.16832L0 3.9604V160H222.836V54.6535L221.591 57.0297L220.346 47.5248L219.101 48.3168L217.856 43.5644L216.612 51.4851L215.367 50.6931L214.122 43.5644L212.877 49.1089L211.632 50.6931L210.387 49.1089L209.142 44.3564L207.897 43.5644L206.652 46.7327L205.408 45.9406L204.163 29.3069L202.918 24.5545L201.673 17.4257L200.428 34.8515L199.183 35.6436L197.938 34.8515L196.693 45.1485L195.448 44.3564L194.203 45.1485L192.959 57.0297L191.714 53.8614L190.469 83.1683L189.224 75.2475L187.979 74.4554L186.734 82.3762L185.489 76.8317L184.244 75.2475L182.999 74.4554L181.755 75.2475L180.51 49.1089L179.265 49.901L178.02 49.1089L176.775 57.8218L175.53 57.0297L174.285 57.8218L173.04 57.0297L171.795 48.3168L170.55 49.901L169.306 48.3168L168.061 47.5248H166.816L165.571 45.9406L164.326 57.8218L163.081 57.0297L161.836 57.8218L160.591 57.0297L159.346 57.8218L158.102 57.0297L156.857 57.8218L155.612 57.0297L154.367 45.9406L153.122 45.1485L151.877 45.9406L150.632 45.1485L149.504 49.901L148.142 44.3564L146.897 45.1485L145.653 60.9901L144.408 62.5743L143.163 54.6535L141.918 55.4455L140.673 60.9901L139.428 52.2772L138.183 51.4851L136.938 45.1485L135.693 44.3564L134.449 45.1485H133.204L131.959 51.4851L130.714 50.6931L129.469 47.5248L128.224 46.7327L126.979 49.901L125.734 13.4653L124.489 21.3861L123.244 34.8515L122 49.901L120.755 49.1089L119.51 49.901L118.265 49.1089L117.02 40.396L115.775 26.9307L114.53 28.5149L113.285 27.7228L112.04 41.1881L110.796 55.4455L109.551 43.5644L108.306 52.2772L107.061 57.8218L105.816 57.0297L104.571 57.8218L103.326 57.0297L102.081 57.8218L100.836 48.3168L99.5915 49.1089L98.3466 48.3168L97.1017 64.1584L95.8568 49.1089L94.6119 53.0693L93.367 52.2772L92.1222 49.901H90.8773L89.6324 50.6931L88.3875 57.0297L87.1426 57.8218L85.8977 57.0297L84.6528 53.8614L83.4079 53.0693L82.163 53.8614L80.9181 45.1485L79.6732 41.9802L78.4283 53.0693L77.1834 53.8614L75.9385 53.0693L74.6936 48.3168L73.4487 47.5248L72.2039 43.5644L70.959 29.3069L69.7141 30.099L68.4692 24.5545L67.2243 27.7228H65.9794L64.7345 26.1386L63.4896 34.0594L62.2447 31.6832L60.9998 35.6436L59.7549 45.1485L58.51 50.6931L57.2651 51.4851L56.0202 52.2772L54.7753 61.7822L53.5304 60.9901L52.2855 49.901L51.0407 38.0198L49.7958 50.6931L48.5509 45.9406L47.306 46.7327L46.0611 39.604L44.8162 40.396L43.5713 39.604L42.3264 37.2277L41.0815 19.0099L39.8366 7.92079L38.5917 7.12871L37.3468 0.792079L36.1019 0L34.857 7.92079L33.6121 0L32.3672 13.4653L31.1224 3.9604L29.8775 7.92079L28.6326 7.12871L27.3877 16.6337L26.1428 34.0594L24.8979 38.8119L23.653 29.3069L22.4081 34.0594L21.1632 53.0693L19.9183 43.5644L18.6734 33.2673L17.4285 34.0594L16.1836 32.4752L14.9387 23.7624L13.6938 26.1386L12.4489 25.3465L11.204 24.5545L9.95915 25.3465L8.71426 24.5545L7.46936 22.1782L6.22447 0L4.97958 0.792079L3.73468 7.92079L2.48979 8.71287L1.24489 3.16832Z" fill="url(#paint0_linear_6559_9444)"/>
<path d="M222.836 55H294.5C294.776 55 295 55.2239 295 55.5C295 55.7761 294.776 56 294.5 56H222.836V55Z" fill="#F1F3F7"/>
<rect x="222.836" width="0.396505" height="160" rx="0.198253" fill="#31C16B"/>
<g filter="url(#filter0_b_6559_9444)">
<rect x="203.303" y="70.4961" width="39" height="19.0099" rx="9.50495" fill="#31C16B"/>
<rect x="203.803" y="70.9961" width="38" height="18.0099" rx="9.00495" stroke="#38C972"/>
<path d="M214.112 84.1193C213.544 84.1193 213.036 84.0128 212.587 83.7997C212.138 83.5838 211.781 83.2884 211.517 82.9134C211.256 82.5384 211.117 82.1094 211.1 81.6264H212.634C212.662 81.9844 212.817 82.277 213.098 82.5043C213.379 82.7287 213.718 82.8409 214.112 82.8409C214.422 82.8409 214.698 82.7699 214.939 82.6278C215.181 82.4858 215.371 82.2884 215.51 82.0355C215.649 81.7827 215.718 81.4943 215.715 81.1705C215.718 80.8409 215.648 80.5483 215.506 80.2926C215.364 80.0369 215.169 79.8366 214.922 79.6918C214.675 79.544 214.391 79.4702 214.07 79.4702C213.808 79.4673 213.551 79.5156 213.298 79.6151C213.046 79.7145 212.845 79.8452 212.698 80.0071L211.27 79.7727L211.726 75.2727H216.789V76.5938H213.034L212.783 78.9077H212.834C212.996 78.7173 213.225 78.5597 213.52 78.4347C213.816 78.3068 214.139 78.2429 214.492 78.2429C215.02 78.2429 215.492 78.3679 215.906 78.6179C216.321 78.8651 216.648 79.206 216.887 79.6406C217.125 80.0753 217.244 80.5724 217.244 81.1321C217.244 81.7088 217.111 82.223 216.844 82.6747C216.58 83.1236 216.212 83.4773 215.74 83.7358C215.271 83.9915 214.729 84.1193 214.112 84.1193ZM221.606 84.1193C221.038 84.1193 220.529 84.0128 220.081 83.7997C219.632 83.5838 219.275 83.2884 219.011 82.9134C218.75 82.5384 218.61 82.1094 218.593 81.6264H220.127C220.156 81.9844 220.311 82.277 220.592 82.5043C220.873 82.7287 221.211 82.8409 221.606 82.8409C221.916 82.8409 222.191 82.7699 222.433 82.6278C222.674 82.4858 222.865 82.2884 223.004 82.0355C223.143 81.7827 223.211 81.4943 223.208 81.1705C223.211 80.8409 223.142 80.5483 223 80.2926C222.858 80.0369 222.663 79.8366 222.416 79.6918C222.169 79.544 221.885 79.4702 221.564 79.4702C221.302 79.4673 221.045 79.5156 220.792 79.6151C220.539 79.7145 220.339 79.8452 220.191 80.0071L218.764 79.7727L219.22 75.2727H224.282V76.5938H220.528L220.277 78.9077H220.328C220.49 78.7173 220.718 78.5597 221.014 78.4347C221.309 78.3068 221.633 78.2429 221.985 78.2429C222.514 78.2429 222.985 78.3679 223.4 78.6179C223.815 78.8651 224.142 79.206 224.38 79.6406C224.619 80.0753 224.738 80.5724 224.738 81.1321C224.738 81.7088 224.605 82.223 224.338 82.6747C224.073 83.1236 223.706 83.4773 223.234 83.7358C222.765 83.9915 222.223 84.1193 221.606 84.1193Z" fill="white"/>
<path d="M232.303 84V76M232.303 76L229.303 79M232.303 76L235.303 79" stroke="white" stroke-linecap="round" stroke-linejoin="round"/>
</g>
<path d="M0 160H322.5C322.776 160 323 160.224 323 160.5C323 160.776 322.776 161 322.5 161H0V160Z" fill="#F1F3F7"/>
<path d="M1 161V170.5C1 170.776 0.776142 171 0.5 171C0.223858 171 -5.96046e-08 170.776 -5.96046e-08 170.5V161H1Z" fill="#F1F3F7"/>
<path d="M162 161V170.5C162 170.776 161.776 171 161.5 171C161.224 171 161 170.776 161 170.5V161H162Z" fill="#F1F3F7"/>
<path d="M323 161V170.5C323 170.776 322.776 171 322.5 171C322.224 171 322 170.776 322 170.5V161H323Z" fill="#F1F3F7"/>
<path d="M0.699574 183V182.205L3.16051 179.655C3.4233 179.378 3.63991 179.135 3.81037 178.927C3.98319 178.716 4.11222 178.516 4.19744 178.327C4.28267 178.137 4.32528 177.936 4.32528 177.723C4.32528 177.482 4.26847 177.273 4.15483 177.098C4.04119 176.92 3.88613 176.784 3.68963 176.69C3.49313 176.593 3.27178 176.544 3.02557 176.544C2.76515 176.544 2.53788 176.597 2.34375 176.704C2.14962 176.81 2.00047 176.961 1.89631 177.155C1.79214 177.349 1.74006 177.576 1.74006 177.837H0.692472C0.692472 177.394 0.794271 177.007 0.997869 176.675C1.20147 176.344 1.48082 176.087 1.83594 175.905C2.19105 175.72 2.5947 175.628 3.04688 175.628C3.50379 175.628 3.90625 175.719 4.25426 175.901C4.60464 176.081 4.87808 176.327 5.07457 176.64C5.27107 176.95 5.36932 177.3 5.36932 177.691C5.36932 177.961 5.31842 178.225 5.21662 178.483C5.11719 178.741 4.94318 179.029 4.6946 179.346C4.44602 179.661 4.10038 180.043 3.65767 180.493L2.21236 182.006V182.059H5.48651V183H0.699574ZM9.36435 183.121C8.80327 183.118 8.32386 182.97 7.92614 182.677C7.52841 182.383 7.2242 181.956 7.01349 181.395C6.80279 180.834 6.69744 180.158 6.69744 179.367C6.69744 178.579 6.80279 177.905 7.01349 177.347C7.22656 176.788 7.53196 176.362 7.92969 176.068C8.32978 175.775 8.808 175.628 9.36435 175.628C9.92069 175.628 10.3977 175.776 10.7955 176.072C11.1932 176.365 11.4974 176.791 11.7081 177.35C11.9212 177.906 12.0277 178.579 12.0277 179.367C12.0277 180.16 11.9223 180.837 11.7116 181.398C11.5009 181.957 11.1967 182.384 10.799 182.68C10.4013 182.974 9.92306 183.121 9.36435 183.121ZM9.36435 182.173C9.85677 182.173 10.2415 181.932 10.5185 181.452C10.7978 180.971 10.9375 180.276 10.9375 179.367C10.9375 178.763 10.8736 178.253 10.7457 177.837C10.6203 177.418 10.4392 177.1 10.2024 176.885C9.96804 176.667 9.68868 176.558 9.36435 176.558C8.87429 176.558 8.48958 176.8 8.21023 177.283C7.93087 177.766 7.79001 178.46 7.78764 179.367C7.78764 179.973 7.85038 180.486 7.97585 180.905C8.10369 181.321 8.2848 181.638 8.51918 181.853C8.75355 182.066 9.03527 182.173 9.36435 182.173ZM13.2875 183V182.205L15.7484 179.655C16.0112 179.378 16.2278 179.135 16.3983 178.927C16.5711 178.716 16.7001 178.516 16.7853 178.327C16.8706 178.137 16.9132 177.936 16.9132 177.723C16.9132 177.482 16.8564 177.273 16.7427 177.098C16.6291 176.92 16.474 176.784 16.2775 176.69C16.081 176.593 15.8597 176.544 15.6135 176.544C15.353 176.544 15.1258 176.597 14.9316 176.704C14.7375 176.81 14.5884 176.961 14.4842 177.155C14.38 177.349 14.3279 177.576 14.3279 177.837H13.2804C13.2804 177.394 13.3822 177.007 13.5858 176.675C13.7894 176.344 14.0687 176.087 14.4238 175.905C14.7789 175.72 15.1826 175.628 15.6348 175.628C16.0917 175.628 16.4941 175.719 16.8422 175.901C17.1925 176.081 17.466 176.327 17.6625 176.64C17.859 176.95 17.9572 177.3 17.9572 177.691C17.9572 177.961 17.9063 178.225 17.8045 178.483C17.7051 178.741 17.5311 179.029 17.2825 179.346C17.0339 179.661 16.6883 180.043 16.2456 180.493L14.8002 182.006V182.059H18.0744V183H13.2875ZM21.9522 183.099C21.4645 183.099 21.0289 183.015 20.6454 182.847C20.2643 182.679 19.9624 182.446 19.7399 182.148C19.5197 181.847 19.4013 181.499 19.3848 181.104H20.4998C20.514 181.319 20.5862 181.506 20.7164 181.665C20.849 181.821 21.0218 181.942 21.2349 182.027C21.448 182.112 21.6847 182.155 21.9451 182.155C22.2316 182.155 22.4849 182.105 22.7051 182.006C22.9276 181.906 23.1016 181.768 23.2271 181.59C23.3526 181.41 23.4153 181.203 23.4153 180.969C23.4153 180.725 23.3526 180.511 23.2271 180.326C23.104 180.139 22.9229 179.992 22.6838 179.886C22.447 179.779 22.1606 179.726 21.8244 179.726H21.21V178.831H21.8244C22.0943 178.831 22.331 178.782 22.5346 178.685C22.7406 178.588 22.9016 178.453 23.0176 178.281C23.1336 178.105 23.1916 177.901 23.1916 177.666C23.1916 177.441 23.1407 177.246 23.0389 177.08C22.9395 176.912 22.7974 176.781 22.6127 176.686C22.4305 176.591 22.215 176.544 21.9664 176.544C21.7297 176.544 21.5083 176.588 21.3024 176.675C21.0988 176.761 20.9331 176.884 20.8052 177.045C20.6774 177.203 20.6087 177.394 20.5993 177.616H19.5375C19.5493 177.223 19.6653 176.878 19.8855 176.58C20.108 176.281 20.4016 176.048 20.7662 175.88C21.1307 175.712 21.5356 175.628 21.9806 175.628C22.447 175.628 22.8495 175.719 23.188 175.901C23.5289 176.081 23.7917 176.321 23.9764 176.622C24.1634 176.923 24.2557 177.252 24.2534 177.609C24.2557 178.017 24.1421 178.362 23.9125 178.646C23.6852 178.93 23.3822 179.121 23.0034 179.218V179.275C23.4863 179.348 23.8604 179.54 24.1255 179.85C24.3931 180.16 24.5256 180.545 24.5233 181.004C24.5256 181.404 24.4144 181.763 24.1895 182.08C23.9669 182.397 23.6627 182.647 23.2768 182.83C22.8909 183.009 22.4494 183.099 21.9522 183.099ZM31.7401 178.902V179.825H28.5156V178.902H31.7401ZM38.3194 183.121C37.7583 183.118 37.2789 182.97 36.8812 182.677C36.4835 182.383 36.1793 181.956 35.9686 181.395C35.7579 180.834 35.6525 180.158 35.6525 179.367C35.6525 178.579 35.7579 177.905 35.9686 177.347C36.1816 176.788 36.487 176.362 36.8848 176.068C37.2849 175.775 37.7631 175.628 38.3194 175.628C38.8758 175.628 39.3528 175.776 39.7505 176.072C40.1483 176.365 40.4525 176.791 40.6632 177.35C40.8762 177.906 40.9828 178.579 40.9828 179.367C40.9828 180.16 40.8774 180.837 40.6667 181.398C40.456 181.957 40.1518 182.384 39.7541 182.68C39.3564 182.974 38.8781 183.121 38.3194 183.121ZM38.3194 182.173C38.8118 182.173 39.1966 181.932 39.4735 181.452C39.7529 180.971 39.8926 180.276 39.8926 179.367C39.8926 178.763 39.8287 178.253 39.7008 177.837C39.5753 177.418 39.3942 177.1 39.1575 176.885C38.9231 176.667 38.6438 176.558 38.3194 176.558C37.8294 176.558 37.4447 176.8 37.1653 177.283C36.8859 177.766 36.7451 178.46 36.7427 179.367C36.7427 179.973 36.8055 180.486 36.9309 180.905C37.0588 181.321 37.2399 181.638 37.4743 181.853C37.7086 182.066 37.9904 182.173 38.3194 182.173ZM45.0018 175.727V183H43.9009V176.828H43.8583L42.1183 177.964V176.913L43.9329 175.727H45.0018Z" fill="#9395B8"/>
<path d="M138.7 183V182.205L141.161 179.655C141.423 179.378 141.64 179.135 141.81 178.927C141.983 178.716 142.112 178.516 142.197 178.327C142.283 178.137 142.325 177.936 142.325 177.723C142.325 177.482 142.268 177.273 142.155 177.098C142.041 176.92 141.886 176.784 141.69 176.69C141.493 176.593 141.272 176.544 141.026 176.544C140.765 176.544 140.538 176.597 140.344 176.704C140.15 176.81 140 176.961 139.896 177.155C139.792 177.349 139.74 177.576 139.74 177.837H138.692C138.692 177.394 138.794 177.007 138.998 176.675C139.201 176.344 139.481 176.087 139.836 175.905C140.191 175.72 140.595 175.628 141.047 175.628C141.504 175.628 141.906 175.719 142.254 175.901C142.605 176.081 142.878 176.327 143.075 176.64C143.271 176.95 143.369 177.3 143.369 177.691C143.369 177.961 143.318 178.225 143.217 178.483C143.117 178.741 142.943 179.029 142.695 179.346C142.446 179.661 142.1 180.043 141.658 180.493L140.212 182.006V182.059H143.487V183H138.7ZM147.364 183.121C146.803 183.118 146.324 182.97 145.926 182.677C145.528 182.383 145.224 181.956 145.013 181.395C144.803 180.834 144.697 180.158 144.697 179.367C144.697 178.579 144.803 177.905 145.013 177.347C145.227 176.788 145.532 176.362 145.93 176.068C146.33 175.775 146.808 175.628 147.364 175.628C147.921 175.628 148.398 175.776 148.795 176.072C149.193 176.365 149.497 176.791 149.708 177.35C149.921 177.906 150.028 178.579 150.028 179.367C150.028 180.16 149.922 180.837 149.712 181.398C149.501 181.957 149.197 182.384 148.799 182.68C148.401 182.974 147.923 183.121 147.364 183.121ZM147.364 182.173C147.857 182.173 148.241 181.932 148.518 181.452C148.798 180.971 148.938 180.276 148.938 179.367C148.938 178.763 148.874 178.253 148.746 177.837C148.62 177.418 148.439 177.1 148.202 176.885C147.968 176.667 147.689 176.558 147.364 176.558C146.874 176.558 146.49 176.8 146.21 177.283C145.931 177.766 145.79 178.46 145.788 179.367C145.788 179.973 145.85 180.486 145.976 180.905C146.104 181.321 146.285 181.638 146.519 181.853C146.754 182.066 147.035 182.173 147.364 182.173ZM151.287 183V182.205L153.748 179.655C154.011 179.378 154.228 179.135 154.398 178.927C154.571 178.716 154.7 178.516 154.785 178.327C154.871 178.137 154.913 177.936 154.913 177.723C154.913 177.482 154.856 177.273 154.743 177.098C154.629 176.92 154.474 176.784 154.278 176.69C154.081 176.593 153.86 176.544 153.613 176.544C153.353 176.544 153.126 176.597 152.932 176.704C152.738 176.81 152.588 176.961 152.484 177.155C152.38 177.349 152.328 177.576 152.328 177.837H151.28C151.28 177.394 151.382 177.007 151.586 176.675C151.789 176.344 152.069 176.087 152.424 175.905C152.779 175.72 153.183 175.628 153.635 175.628C154.092 175.628 154.494 175.719 154.842 175.901C155.193 176.081 155.466 176.327 155.662 176.64C155.859 176.95 155.957 177.3 155.957 177.691C155.957 177.961 155.906 178.225 155.805 178.483C155.705 178.741 155.531 179.029 155.282 179.346C155.034 179.661 154.688 180.043 154.246 180.493L152.8 182.006V182.059H156.074V183H151.287ZM159.952 183.099C159.465 183.099 159.029 183.015 158.645 182.847C158.264 182.679 157.962 182.446 157.74 182.148C157.52 181.847 157.401 181.499 157.385 181.104H158.5C158.514 181.319 158.586 181.506 158.716 181.665C158.849 181.821 159.022 181.942 159.235 182.027C159.448 182.112 159.685 182.155 159.945 182.155C160.232 182.155 160.485 182.105 160.705 182.006C160.928 181.906 161.102 181.768 161.227 181.59C161.353 181.41 161.415 181.203 161.415 180.969C161.415 180.725 161.353 180.511 161.227 180.326C161.104 180.139 160.923 179.992 160.684 179.886C160.447 179.779 160.161 179.726 159.824 179.726H159.21V178.831H159.824C160.094 178.831 160.331 178.782 160.535 178.685C160.741 178.588 160.902 178.453 161.018 178.281C161.134 178.105 161.192 177.901 161.192 177.666C161.192 177.441 161.141 177.246 161.039 177.08C160.939 176.912 160.797 176.781 160.613 176.686C160.43 176.591 160.215 176.544 159.966 176.544C159.73 176.544 159.508 176.588 159.302 176.675C159.099 176.761 158.933 176.884 158.805 177.045C158.677 177.203 158.609 177.394 158.599 177.616H157.537C157.549 177.223 157.665 176.878 157.885 176.58C158.108 176.281 158.402 176.048 158.766 175.88C159.131 175.712 159.536 175.628 159.981 175.628C160.447 175.628 160.849 175.719 161.188 175.901C161.529 176.081 161.792 176.321 161.976 176.622C162.163 176.923 162.256 177.252 162.253 177.609C162.256 178.017 162.142 178.362 161.912 178.646C161.685 178.93 161.382 179.121 161.003 179.218V179.275C161.486 179.348 161.86 179.54 162.126 179.85C162.393 180.16 162.526 180.545 162.523 181.004C162.526 181.404 162.414 181.763 162.189 182.08C161.967 182.397 161.663 182.647 161.277 182.83C160.891 183.009 160.449 183.099 159.952 183.099ZM169.74 178.902V179.825H166.516V178.902H169.74ZM176.319 183.121C175.758 183.118 175.279 182.97 174.881 182.677C174.483 182.383 174.179 181.956 173.969 181.395C173.758 180.834 173.653 180.158 173.653 179.367C173.653 178.579 173.758 177.905 173.969 177.347C174.182 176.788 174.487 176.362 174.885 176.068C175.285 175.775 175.763 175.628 176.319 175.628C176.876 175.628 177.353 175.776 177.751 176.072C178.148 176.365 178.452 176.791 178.663 177.35C178.876 177.906 178.983 178.579 178.983 179.367C178.983 180.16 178.877 180.837 178.667 181.398C178.456 181.957 178.152 182.384 177.754 182.68C177.356 182.974 176.878 183.121 176.319 183.121ZM176.319 182.173C176.812 182.173 177.197 181.932 177.474 181.452C177.753 180.971 177.893 180.276 177.893 179.367C177.893 178.763 177.829 178.253 177.701 177.837C177.575 177.418 177.394 177.1 177.157 176.885C176.923 176.667 176.644 176.558 176.319 176.558C175.829 176.558 175.445 176.8 175.165 177.283C174.886 177.766 174.745 178.46 174.743 179.367C174.743 179.973 174.805 180.486 174.931 180.905C175.059 181.321 175.24 181.638 175.474 181.853C175.709 182.066 175.99 182.173 176.319 182.173ZM182.782 183.099C182.457 183.095 182.138 183.036 181.823 182.922C181.51 182.808 181.226 182.619 180.971 182.354C180.715 182.089 180.51 181.732 180.356 181.285C180.205 180.837 180.129 180.279 180.129 179.609C180.129 178.974 180.192 178.411 180.317 177.918C180.445 177.426 180.628 177.01 180.868 176.672C181.107 176.331 181.395 176.072 181.734 175.894C182.073 175.717 182.453 175.628 182.874 175.628C183.307 175.628 183.692 175.713 184.028 175.884C184.364 176.054 184.636 176.29 184.845 176.59C185.056 176.891 185.189 177.233 185.246 177.616H184.163C184.09 177.313 183.944 177.066 183.726 176.874C183.508 176.683 183.224 176.587 182.874 176.587C182.341 176.587 181.926 176.819 181.627 177.283C181.332 177.747 181.182 178.392 181.18 179.218H181.233C181.359 179.012 181.513 178.837 181.695 178.692C181.88 178.546 182.086 178.433 182.313 178.355C182.542 178.275 182.784 178.234 183.037 178.234C183.459 178.234 183.84 178.337 184.181 178.543C184.524 178.747 184.797 179.029 185.001 179.388C185.205 179.748 185.306 180.16 185.306 180.624C185.306 181.088 185.201 181.509 184.99 181.885C184.782 182.261 184.489 182.56 184.11 182.78C183.731 182.998 183.288 183.104 182.782 183.099ZM182.778 182.176C183.057 182.176 183.307 182.107 183.527 181.97C183.748 181.833 183.922 181.648 184.049 181.416C184.177 181.184 184.241 180.925 184.241 180.638C184.241 180.359 184.178 180.105 184.053 179.875C183.93 179.645 183.759 179.463 183.542 179.328C183.326 179.193 183.08 179.126 182.803 179.126C182.592 179.126 182.397 179.166 182.217 179.246C182.039 179.327 181.883 179.438 181.748 179.58C181.613 179.722 181.507 179.886 181.429 180.07C181.353 180.253 181.315 180.446 181.315 180.649C181.315 180.921 181.378 181.174 181.503 181.406C181.631 181.638 181.805 181.825 182.025 181.967C182.248 182.106 182.499 182.176 182.778 182.176Z" fill="#9395B8"/>
<path d="M277.7 183V182.205L280.161 179.655C280.423 179.378 280.64 179.135 280.81 178.927C280.983 178.716 281.112 178.516 281.197 178.327C281.283 178.137 281.325 177.936 281.325 177.723C281.325 177.482 281.268 177.273 281.155 177.098C281.041 176.92 280.886 176.784 280.69 176.69C280.493 176.593 280.272 176.544 280.026 176.544C279.765 176.544 279.538 176.597 279.344 176.704C279.15 176.81 279 176.961 278.896 177.155C278.792 177.349 278.74 177.576 278.74 177.837H277.692C277.692 177.394 277.794 177.007 277.998 176.675C278.201 176.344 278.481 176.087 278.836 175.905C279.191 175.72 279.595 175.628 280.047 175.628C280.504 175.628 280.906 175.719 281.254 175.901C281.605 176.081 281.878 176.327 282.075 176.64C282.271 176.95 282.369 177.3 282.369 177.691C282.369 177.961 282.318 178.225 282.217 178.483C282.117 178.741 281.943 179.029 281.695 179.346C281.446 179.661 281.1 180.043 280.658 180.493L279.212 182.006V182.059H282.487V183H277.7ZM286.364 183.121C285.803 183.118 285.324 182.97 284.926 182.677C284.528 182.383 284.224 181.956 284.013 181.395C283.803 180.834 283.697 180.158 283.697 179.367C283.697 178.579 283.803 177.905 284.013 177.347C284.227 176.788 284.532 176.362 284.93 176.068C285.33 175.775 285.808 175.628 286.364 175.628C286.921 175.628 287.398 175.776 287.795 176.072C288.193 176.365 288.497 176.791 288.708 177.35C288.921 177.906 289.028 178.579 289.028 179.367C289.028 180.16 288.922 180.837 288.712 181.398C288.501 181.957 288.197 182.384 287.799 182.68C287.401 182.974 286.923 183.121 286.364 183.121ZM286.364 182.173C286.857 182.173 287.241 181.932 287.518 181.452C287.798 180.971 287.938 180.276 287.938 179.367C287.938 178.763 287.874 178.253 287.746 177.837C287.62 177.418 287.439 177.1 287.202 176.885C286.968 176.667 286.689 176.558 286.364 176.558C285.874 176.558 285.49 176.8 285.21 177.283C284.931 177.766 284.79 178.46 284.788 179.367C284.788 179.973 284.85 180.486 284.976 180.905C285.104 181.321 285.285 181.638 285.519 181.853C285.754 182.066 286.035 182.173 286.364 182.173ZM290.287 183V182.205L292.748 179.655C293.011 179.378 293.228 179.135 293.398 178.927C293.571 178.716 293.7 178.516 293.785 178.327C293.871 178.137 293.913 177.936 293.913 177.723C293.913 177.482 293.856 177.273 293.743 177.098C293.629 176.92 293.474 176.784 293.278 176.69C293.081 176.593 292.86 176.544 292.613 176.544C292.353 176.544 292.126 176.597 291.932 176.704C291.738 176.81 291.588 176.961 291.484 177.155C291.38 177.349 291.328 177.576 291.328 177.837H290.28C290.28 177.394 290.382 177.007 290.586 176.675C290.789 176.344 291.069 176.087 291.424 175.905C291.779 175.72 292.183 175.628 292.635 175.628C293.092 175.628 293.494 175.719 293.842 175.901C294.193 176.081 294.466 176.327 294.662 176.64C294.859 176.95 294.957 177.3 294.957 177.691C294.957 177.961 294.906 178.225 294.805 178.483C294.705 178.741 294.531 179.029 294.282 179.346C294.034 179.661 293.688 180.043 293.246 180.493L291.8 182.006V182.059H295.074V183H290.287ZM298.952 183.099C298.465 183.099 298.029 183.015 297.645 182.847C297.264 182.679 296.962 182.446 296.74 182.148C296.52 181.847 296.401 181.499 296.385 181.104H297.5C297.514 181.319 297.586 181.506 297.716 181.665C297.849 181.821 298.022 181.942 298.235 182.027C298.448 182.112 298.685 182.155 298.945 182.155C299.232 182.155 299.485 182.105 299.705 182.006C299.928 181.906 300.102 181.768 300.227 181.59C300.353 181.41 300.415 181.203 300.415 180.969C300.415 180.725 300.353 180.511 300.227 180.326C300.104 180.139 299.923 179.992 299.684 179.886C299.447 179.779 299.161 179.726 298.824 179.726H298.21V178.831H298.824C299.094 178.831 299.331 178.782 299.535 178.685C299.741 178.588 299.902 178.453 300.018 178.281C300.134 178.105 300.192 177.901 300.192 177.666C300.192 177.441 300.141 177.246 300.039 177.08C299.939 176.912 299.797 176.781 299.613 176.686C299.43 176.591 299.215 176.544 298.966 176.544C298.73 176.544 298.508 176.588 298.302 176.675C298.099 176.761 297.933 176.884 297.805 177.045C297.677 177.203 297.609 177.394 297.599 177.616H296.537C296.549 177.223 296.665 176.878 296.885 176.58C297.108 176.281 297.402 176.048 297.766 175.88C298.131 175.712 298.536 175.628 298.981 175.628C299.447 175.628 299.849 175.719 300.188 175.901C300.529 176.081 300.792 176.321 300.976 176.622C301.163 176.923 301.256 177.252 301.253 177.609C301.256 178.017 301.142 178.362 300.912 178.646C300.685 178.93 300.382 179.121 300.003 179.218V179.275C300.486 179.348 300.86 179.54 301.126 179.85C301.393 180.16 301.526 180.545 301.523 181.004C301.526 181.404 301.414 181.763 301.189 182.08C300.967 182.397 300.663 182.647 300.277 182.83C299.891 183.009 299.449 183.099 298.952 183.099ZM308.74 178.902V179.825H305.516V178.902H308.74ZM315.547 175.727V183H314.446V176.828H314.403L312.663 177.964V176.913L314.478 175.727H315.547ZM317.514 183V182.205L319.975 179.655C320.238 179.378 320.454 179.135 320.625 178.927C320.798 178.716 320.927 178.516 321.012 178.327C321.097 178.137 321.14 177.936 321.14 177.723C321.14 177.482 321.083 177.273 320.969 177.098C320.856 176.92 320.701 176.784 320.504 176.69C320.308 176.593 320.086 176.544 319.84 176.544C319.58 176.544 319.352 176.597 319.158 176.704C318.964 176.81 318.815 176.961 318.711 177.155C318.607 177.349 318.555 177.576 318.555 177.837H317.507C317.507 177.394 317.609 177.007 317.812 176.675C318.016 176.344 318.295 176.087 318.65 175.905C319.006 175.72 319.409 175.628 319.861 175.628C320.318 175.628 320.721 175.719 321.069 175.901C321.419 176.081 321.693 176.327 321.889 176.64C322.086 176.95 322.184 177.3 322.184 177.691C322.184 177.961 322.133 178.225 322.031 178.483C321.932 178.741 321.758 179.029 321.509 179.346C321.26 179.661 320.915 180.043 320.472 180.493L319.027 182.006V182.059H322.301V183H317.514Z" fill="#9395B8"/>
<defs>
<filter id="filter0_b_6559_9444" x="166.503" y="33.6961" width="112.6" height="92.6117" filterUnits="userSpaceOnUse" color-interpolation-filters="sRGB">
<feFlood flood-opacity="0" result="BackgroundImageFix"/>
<feGaussianBlur in="BackgroundImageFix" stdDeviation="18.4"/>
<feComposite in2="SourceAlpha" operator="in" result="effect1_backgroundBlur_6559_9444"/>
<feBlend mode="normal" in="SourceGraphic" in2="effect1_backgroundBlur_6559_9444" result="shape"/>
</filter>
<linearGradient id="paint0_linear_6559_9444" x1="164.669" y1="-51.4957" x2="165.087" y2="160" gradientUnits="userSpaceOnUse">
<stop stop-color="#38C972"/>
<stop offset="1" stop-color="#38C972" stop-opacity="0"/>
</linearGradient>
</defs>
</svg>
