<svg width="20" height="20" viewBox="0 0 20 20" fill="none" xmlns="http://www.w3.org/2000/svg">
<path d="M5.75033 9.53834V11.8532M5.75033 9.53834V3.98278C5.75033 3.21572 6.38459 2.59389 7.16699 2.59389C7.9494 2.59389 8.58366 3.21572 8.58366 3.98278M5.75033 9.53834C5.75033 8.77128 5.11606 8.14945 4.33366 8.14945C3.55126 8.14945 2.91699 8.77128 2.91699 9.53834V11.3902C2.91699 15.2255 6.08831 18.3346 10.0003 18.3346C13.9123 18.3346 17.0837 15.2255 17.0837 11.3902V6.76056C17.0837 5.9935 16.4494 5.37167 15.667 5.37167C14.8846 5.37167 14.2503 5.9935 14.2503 6.76056M8.58366 3.98278V9.07538M8.58366 3.98278V3.05686C8.58366 2.2898 9.21792 1.66797 10.0003 1.66797C10.7827 1.66797 11.417 2.2898 11.417 3.05686V3.98278M11.417 3.98278V9.07538M11.417 3.98278C11.417 3.21572 12.0513 2.59389 12.8337 2.59389C13.6161 2.59389 14.2503 3.21572 14.2503 3.98278V6.76056M14.2503 6.76056V9.07538" stroke="#9395B8" stroke-width="1.5" stroke-linecap="round" stroke-linejoin="round"/>
</svg>
