<svg width="111" height="18" viewBox="0 0 111 18" fill="none" xmlns="http://www.w3.org/2000/svg">
<g clip-path="url(#clip0_10732_2770)">
<path d="M52.3317 1.00781H46.779C45.0763 1.00781 43.6694 2.26634 43.4473 3.96939L41.8555 16.9998H45.1132L45.7054 12.2243H47.98L50.5178 16.9998H54.2937L51.1956 11.1369L54.6638 6.93096C56.9219 4.19148 55.6634 1.00814 52.3317 1.00814V1.00781ZM51.5173 5.59807L49.074 8.63367C48.9259 8.81892 48.6667 8.9298 48.4446 8.9298H46.1124L46.6678 4.26551H50.9988C51.7023 4.26551 51.9984 4.96897 51.517 5.59807H51.5173Z" fill="black"/>
<path d="M80.8522 1.00781H75.2995C73.5968 1.00781 72.1899 2.26634 71.9678 3.96939L70.376 16.9998H73.6337L74.2259 12.2243H76.5005L79.0383 16.9998H82.8142L79.7161 11.1369L83.1843 6.93096C85.4425 4.19148 84.1839 1.00814 80.8522 1.00814V1.00781ZM80.0379 5.59807L77.5945 8.63367C77.4464 8.81892 77.1872 8.9298 76.9651 8.9298H74.6329L75.1883 4.26551H79.5193C80.2228 4.26551 80.5189 4.96897 80.0375 5.59807H80.0379Z" fill="#FF2410"/>
<path d="M24.3092 1.00781H18.7566C17.0539 1.00781 15.6469 2.26634 15.4248 3.96939L13.833 16.9998H17.0907L17.683 12.2243H21.0147C21.829 12.2243 22.6434 11.8542 23.1988 11.1507L26.6786 6.93063C29.0847 4.00624 27.641 1.00781 24.3092 1.00781ZM23.5317 5.59807L21.0884 8.63367C20.9403 8.81892 20.681 8.9298 20.459 8.9298H18.0896L18.645 4.26551H23.0132C23.7167 4.26551 24.0128 4.96897 23.5314 5.59807H23.5317Z" fill="black"/>
<path d="M35.7475 0.859375C32.3417 0.859375 29.3065 3.67289 28.862 7.22638L28.4178 10.743C27.9736 14.2968 30.3426 17.1472 33.7483 17.1472C37.1541 17.1472 40.1894 14.2968 40.6339 10.743L41.0781 7.22638C41.5223 3.67289 39.1529 0.859375 35.7475 0.859375ZM37.9684 7.22638L37.5242 10.7802C37.3022 12.4829 35.8215 13.8898 34.1557 13.8898C32.4898 13.8898 31.3053 12.4832 31.5274 10.7802L31.9716 7.22638C32.1937 5.48648 33.6743 4.11674 35.3402 4.11674C37.006 4.11674 38.1905 5.48648 37.9684 7.22638Z" fill="black"/>
<path d="M1.80626 5.82016C1.47296 8.59649 3.25003 10.6325 6.02636 10.6325H7.80311C8.69148 10.6325 9.28373 11.2988 9.17285 12.1872C9.06164 13.0755 8.32133 13.7418 7.43295 13.7418H0.843859L0.436523 16.9998H7.09998C9.83946 16.9998 12.0976 14.9638 12.4305 12.2243C12.7639 9.44802 10.9868 7.37482 8.21045 7.37482H6.4337C5.54533 7.37482 4.95308 6.70854 5.06396 5.82016C5.17517 4.93179 5.91548 4.26551 6.80386 4.26551H13.393L13.8003 1.00781H7.21086C4.43453 1.00781 2.13924 3.04383 1.80626 5.82016Z" fill="black"/>
<path d="M101.899 7.37514C102.121 5.63525 103.602 4.26551 105.268 4.26551H109.975L110.382 1.00781H105.675C102.269 1.00781 99.2342 3.82132 98.7897 7.37481L98.3823 10.5953C97.9381 14.1492 100.27 16.9623 103.676 16.9995H108.408L108.815 13.7418H104.083C102.418 13.705 101.27 12.3352 101.492 10.6322L101.899 7.37449V7.37514Z" fill="#FF2410"/>
<path d="M86.3143 3.96971L85.0927 14.0386C84.8706 15.7413 85.981 17.0002 87.6841 17.0002H95.5689L95.9762 13.7425H88.4244L88.7945 10.6328H95.1247L95.532 7.37514H89.2019L89.572 4.26551H97.1239L97.5312 1.00781H89.6464C87.9437 1.00781 86.5368 2.26634 86.3147 3.96939L86.3143 3.96971Z" fill="#FF2410"/>
<path d="M57.6621 4.26551H62.1783L60.6237 16.9998H63.8814L65.436 4.26551H69.9523L70.3596 1.00781H58.0694L57.6621 4.26551Z" fill="black"/>
</g>
<defs>
<clipPath id="clip0_10732_2770">
<rect width="109.946" height="16.2882" fill="white" transform="translate(0.436523 0.859375)"/>
</clipPath>
</defs>
</svg>
