<svg width="173" height="26" viewBox="0 0 173 26" fill="none" xmlns="http://www.w3.org/2000/svg">
<g clip-path="url(#clip0_3994_94538)">
<path d="M81.957 0.51001H73.281C70.6205 0.51001 68.4222 2.47646 68.0751 5.13747L65.5879 25.4976H70.678L71.6034 18.0358H75.1574L79.1227 25.4976H85.0226L80.1818 16.3367L85.601 9.76493C89.1293 5.48449 87.1628 0.510524 81.957 0.510524V0.51001ZM80.6846 7.68229L76.8668 12.4254C76.6355 12.7149 76.2304 12.8881 75.8834 12.8881H72.2394L73.1072 5.60016H79.8743C80.9735 5.60016 81.4362 6.69932 80.6841 7.68229H80.6846Z" fill="white"/>
<path d="M126.519 0.51001H117.843C115.183 0.51001 112.985 2.47646 112.638 5.13747L110.15 25.4976H115.241L116.166 18.0358H119.72L123.685 25.4976H129.585L124.744 16.3367L130.163 9.76493C133.692 5.48449 131.725 0.510524 126.519 0.510524V0.51001ZM125.247 7.68229L121.429 12.4254C121.198 12.7149 120.793 12.8881 120.446 12.8881H116.802L117.67 5.60016H124.437C125.536 5.60016 125.999 6.69932 125.247 7.68229H125.247Z" fill="#FF2410"/>
<path d="M38.1709 0.51001H29.4948C26.8343 0.51001 24.636 2.47646 24.289 5.13747L21.8018 25.4976H26.8919L27.8173 18.0358H33.0231C34.2955 18.0358 35.5679 17.4575 36.4358 16.3583L41.8729 9.76441C45.6326 5.19505 43.3767 0.51001 38.1709 0.51001ZM36.956 7.68229L33.1383 12.4254C32.9069 12.7149 32.5018 12.8881 32.1548 12.8881H28.4527L29.3205 5.60016H36.1458C37.245 5.60016 37.7076 6.69932 36.9555 7.68229H36.956Z" fill="white"/>
<path d="M56.0441 0.278809C50.7226 0.278809 45.98 4.67492 45.2855 10.2273L44.5914 15.722C43.8974 21.2749 47.5989 25.7285 52.9204 25.7285C58.2419 25.7285 62.9845 21.2749 63.6791 15.722L64.3731 10.2273C65.0672 4.67492 61.3651 0.278809 56.0441 0.278809ZM59.5143 10.2273L58.8203 15.7801C58.4733 18.4406 56.1598 20.6389 53.5569 20.6389C50.954 20.6389 49.1032 18.4411 49.4502 15.7801L50.1443 10.2273C50.4913 7.50866 52.8048 5.36845 55.4077 5.36845C58.0106 5.36845 59.8614 7.50866 59.5143 10.2273Z" fill="white"/>
<path d="M3.01034 8.02931C2.48955 12.3673 5.26623 15.5486 9.60424 15.5486H12.3804C13.7685 15.5486 14.6939 16.5897 14.5206 17.9777C14.3469 19.3658 13.1901 20.4069 11.802 20.4069H1.50658L0.870117 25.4976H11.2818C15.5622 25.4976 19.0905 22.3163 19.6108 18.0358C20.1316 13.6978 17.3549 10.4585 13.0169 10.4585H10.2407C8.85262 10.4585 7.92723 9.41739 8.10049 8.02931C8.27425 6.64122 9.43099 5.60016 10.8191 5.60016H21.1145L21.751 0.51001H11.455C7.117 0.51001 3.53061 3.69129 3.01034 8.02931Z" fill="white"/>
<path d="M159.406 10.459C159.753 7.74038 162.067 5.60016 164.67 5.60016H172.024L172.661 0.51001H165.306C159.984 0.51001 155.242 4.90612 154.547 10.4585L153.911 15.4905C153.217 21.0434 156.861 25.439 162.182 25.497H169.576L170.212 20.4069H162.819C160.216 20.3493 158.423 18.2091 158.77 15.5481L159.406 10.4579V10.459Z" fill="#FF2410"/>
<path d="M135.055 5.13749L133.147 20.8701C132.8 23.5306 134.535 25.4976 137.196 25.4976H149.516L150.152 20.4074H138.352L138.931 15.5486H148.822L149.458 10.4585H139.567L140.146 5.59967H151.945L152.582 0.509521H140.262C137.601 0.509521 135.403 2.47597 135.056 5.13698L135.055 5.13749Z" fill="#FF2410"/>
<path d="M90.2861 5.60016H97.3427L94.9136 25.4976H100.004L102.433 5.60016H109.489L110.126 0.51001H90.9226L90.2861 5.60016Z" fill="white"/>
</g>
<defs>
<clipPath id="clip0_3994_94538">
<rect width="171.791" height="25.4502" fill="white" transform="translate(0.870117 0.278809)"/>
</clipPath>
</defs>
</svg>
